<svg version="1.1" xmlns="http://www.w3.org/2000/svg" style="display: block;" viewBox="0 0 2048 1354" width="567" height="375" preserveAspectRatio="none">
  <defs>
    <radialGradient id="bgNavy" cx="50%" cy="50%" r="65%" fx="50%" fy="50%">
      <stop offset="0%" stop-color="rgb(18, 40, 90)"/>
      <stop offset="100%" stop-color="rgb(8, 10, 18)"/>
    </radialGradient>
  </defs>
  <path transform="translate(0,0)" fill="url(#bgNavy)" d="M 0 0 L 2048 0 L 2048 1354 L 0 1354 L 0 0 z"/>
  <path transform="translate(0,0)" fill="rgb(33, 196, 93)" d="M 668.085 389.421 C 684.514 387.889 726.236 389.014 744.65 389.017 L 899.613 389.063 L 1035.3 389.017 C 1078.09 389.012 1122.12 383.002 1157.56 411.735 C 1178.01 428.186 1191.09 452.083 1193.92 478.174 C 1195.92 498.35 1194.9 529.988 1194.91 551.463 L 1194.89 684.277 L 1194.9 789.114 C 1194.89 803.74 1195.64 834.012 1193.53 847.167 C 1190.67 864.895 1183.11 881.529 1171.62 895.333 C 1152.41 918.45 1128.77 929.217 1099.39 931.994 C 1066.64 933.088 1030.55 932.398 997.589 932.395 L 816.939 932.372 L 718.713 932.418 C 697.999 932.429 674.346 933.57 654.107 930.506 C 610.813 923.952 573.983 884.076 571.615 840.25 C 570.251 815.007 570.698 790.08 570.721 764.966 L 570.731 635.952 L 570.711 534.654 C 570.709 518.987 570.039 487.827 572.425 473.28 C 575.332 455.585 582.99 439.012 594.583 425.33 C 614.202 402.121 638.443 391.858 668.085 389.421 z"/>
  <path transform="translate(0,0)" fill="rgb(33, 196, 93)" d="M 1431.66 443.339 C 1441.55 442.14 1454.49 446.382 1463.3 450.807 C 1504.19 471.359 1495.33 524.25 1495.35 563.745 L 1495.35 675.511 L 1495.36 765.364 C 1495.37 787.03 1498.3 826.619 1487.74 845.187 C 1479.73 859.585 1466.3 870.185 1450.43 874.633 C 1423.61 881.993 1404.21 868.818 1382.25 856.096 L 1349.28 837.136 C 1338.22 830.2 1323.46 822.286 1311.92 815.676 L 1245.3 777.664 C 1244.29 700.189 1245.42 620.696 1245.16 543.008 C 1256.56 537.344 1274.42 526.223 1285.99 519.532 L 1365.8 473.389 C 1386.64 461.35 1407.51 446.332 1431.66 443.339 z"/>
</svg>